<svg xmlns="http://www.w3.org/2000/svg" viewBox="0 0 205.52 299.36"><title>Asset 5</title><g id="cd534487-6e06-452e-9e82-35f9f3390870" data-name="Layer 2"><g id="fdbc33a5-5b95-4e1b-bc0e-61e483dd34fb" data-name="Layer 1"><path d="M77.79,240" transform="translate(-4.39 -9.51)"/><path d="M101,194.87c-1.68-3.44-3.75-6.81-6.82-9.11-4.65-3.49-10.79-4-16.64-4.16l0-.08c-5.87,0-9.87-6-15.37-8.07-2.74-1-6.69-.38-7.31,2.47-.49,2.27,1.43,4.27,3.18,5.8l4.22,3.67a2.37,2.37,0,0,1,.94,1.32c.18,1.24-1.46,1.86-2.13,2.92-1,1.63.49,3.62,1.77,5.07s2.28,4,.69,5c-1.52-.11-2.5-1.6-3.33-2.89A37.12,37.12,0,0,0,47,184.44c-2.77-1.54-6.93-2.38-8.53.35s.92,5.73,3,8a49.46,49.46,0,0,1,9.81,15.66c2.33,6,3.46,12.35,5.08,18.56a121.87,121.87,0,0,0,7.29,20.37c2,4.24,4.32,8.56,8.24,11.12a18.5,18.5,0,0,1,4,2.8A11.15,11.15,0,0,1,77.8,265L82,276.8c3.56-1.5,6.59-4,9.55-6.5,4.16-3.49,8.37-7,11.6-11.38s5.61-8.55,5.24-14l-.12-.78v-3.66c-.52-5.72-1.18-9.12-.91-15.14A63.37,63.37,0,0,0,101,194.87Z" transform="translate(-4.39 -9.51)" fill="#423e50"/><path d="M103.17,193.61c-2.43-4.78-5.48-9.16-10.39-11.63-4.68-2.36-10.09-2.69-15.23-2.88l2.16,1.24c-1-1.93-4.19-1.54-5.92-2.37-2.89-1.39-5.16-3.87-7.94-5.47-3.77-2.17-9.71-3.36-12.6.95-3.81,5.68,3.42,9.69,6.52,13.11,1.11,1.23,1-.79-.49,1.31a5.16,5.16,0,0,0-1,2.71c-.08,1.37,3.56,7.3,3.48,7.4l2.43-.64c-1.94-.59-3.59-4.36-4.91-5.94a38.86,38.86,0,0,0-5.93-5.72c-3.46-2.7-8.15-6-12.84-5-3.92.82-5.67,4.55-4.54,8.23.76,2.47,2.67,4.37,4.32,6.27a49.06,49.06,0,0,1,6.38,9.16c3.34,6.24,4.8,13.11,6.46,19.93a133,133,0,0,0,6.67,20.47c2.21,5.25,4.63,10.86,9.1,14.6,3,2.48,5.39,3.4,6.83,7.22,1.37,3.62,2.6,7.29,3.9,10.93A2.55,2.55,0,0,0,83.26,279c7.7-3.61,15.3-10.45,20.66-17,4.62-5.63,7.07-11.19,6.85-18.41-.24-7.53-.68-15-.88-22.56a68.12,68.12,0,0,0-6.72-27.39c-1.37-2.91-5.68-.37-4.32,2.52a62,62,0,0,1,6.06,25.74c.08,6.71.71,13.34.85,20s-1.34,11.72-5.9,17.16c-5,5.95-12.09,12.29-19.12,15.58l3.67,1.49c-1.73-4.85-3-10.52-5.55-15a12.59,12.59,0,0,0-4.31-4,20.46,20.46,0,0,1-6.61-6.87c-6-10.18-8.6-22-11.45-33.33a66.7,66.7,0,0,0-5.13-14.41,51.37,51.37,0,0,0-4.48-7.15c-1.21-1.63-4.73-4.53-5.3-6.37l.72-3.51a6.51,6.51,0,0,1,2.6.72,18.89,18.89,0,0,1,3.44,2,34.71,34.71,0,0,1,6.38,5.59c2.61,2.92,4.13,7.18,8.12,8.38a2.45,2.45,0,0,0,2.43-.64c2.61-3.16,1.08-5.46-.69-8.58-2-3.47.29-2.26.93-5.14a4,4,0,0,0-.91-3.58c-1.46-1.94-4.76-3.09-5.87-5.23-3.42-6.58,5.12-1.89,6.9-.63,3.84,2.72,7,5.32,11.88,5.66l-2.16-1.24,0,.08a2.5,2.5,0,0,0,2.16,1.24c4.23.16,8.82.3,12.71,2.2,4.17,2,6.56,5.83,8.6,9.84C100.31,199,104.63,196.47,103.17,193.61Z" transform="translate(-4.39 -9.51)" fill="#423e50"/><path d="M105,222.54c-3.93-5.46-5.82-12.14-6.86-18.79a27.87,27.87,0,0,0-1.61-7,7.77,7.77,0,0,0-5.09-4.69,7,7,0,0,0-6.59,2.49,13,13,0,0,0-2.75,6.75,37.45,37.45,0,0,0,.8,12.52c.5,2.5,1.08,5.07.58,7.57A28.13,28.13,0,0,1,82,225.73a47.82,47.82,0,0,0-2.25,10.06c-.43,2.9-.85,6,.24,8.69" transform="translate(-4.39 -9.51)" fill="none" stroke="#fff" stroke-miterlimit="10" stroke-width="2"/><path d="M81.29,178.43c-3.64.93-14.3,5.56-17.86,6.93a9.6,9.6,0,0,0-4.71,5.1c-.54,1.9,1,3.69,2.59,4.92s3.49,1,5.3.68a36,36,0,0,0,11.95-4.75" transform="translate(-4.39 -9.51)" fill="none" stroke="#fff" stroke-miterlimit="10" stroke-width="2"/><rect x="56.95" y="145.35" width="150.45" height="6.95" rx="2.17" ry="2.17" transform="translate(-69.38 112) rotate(-40.51)" fill="#423e50" stroke="#fff" stroke-miterlimit="10" stroke-width="2"/><path d="M58.86,190.67a29.07,29.07,0,0,0-7.56,5.13,6.9,6.9,0,0,0-2.39,3.07c-.62,2.08.79,4.36,2.74,5.3a9.22,9.22,0,0,0,6.36.2c3.48-.95,10.94-6.8,13.27-9.55" transform="translate(-4.39 -9.51)" fill="none" stroke="#fff" stroke-miterlimit="10" stroke-width="2"/><path d="M122.46,247.42c-10.94-5.15-19.06,9-23.25,16-4.71,7.93-11.85,8.87-16.19,16.46-6.35,11.11-.31,16.37,11.51,25.15,8.22,6.1,29.13-10.4,36.92-21.27C143.1,267.54,139.3,255.35,122.46,247.42Z" transform="translate(-4.39 -9.51)" fill="#423e50"/><path d="M123.13,245c-13.47-5.53-20.64,9.71-26.92,18.52-4.27,6-11.56,8.63-15.33,15.13-2.9,5-4,10.76-1,16A37.52,37.52,0,0,0,94.6,308c4.33,2,9.31.4,13.39-1.44,11.94-5.39,23.81-16.18,29.59-28,2.84-5.81,4.24-12.48,1.8-18.68-2.73-7-9.18-11.41-15.66-14.57-2.88-1.41-5.42,2.9-2.52,4.32,6.14,3,12.95,7.31,14.26,14.59,1.27,7-2.88,14.21-7,19.52a69.28,69.28,0,0,1-14.36,13.47c-4,2.88-10.59,7.6-15.9,6.69-3.46-.59-6.77-4.16-9.28-6.39-2.2-2-4.63-4.19-5.54-7.08-2.38-7.57,5.31-13.58,10.45-17.57,4.92-3.82,7.58-8.47,10.95-13.55,3.86-5.82,9.38-12.59,17.06-9.43C124.77,251.05,126.07,246.22,123.13,245Z" transform="translate(-4.39 -9.51)" fill="#fff"/><ellipse cx="45.51" cy="83.43" rx="11.91" ry="10.33" fill="#423e50" stroke="#423e50" stroke-miterlimit="10"/><line x1="60.79" y1="36.45" x2="54.57" y2="84.65" fill="none" stroke="#423e50" stroke-miterlimit="10" stroke-width="5"/><ellipse cx="111.03" cy="80.04" rx="10.33" ry="11.91" transform="translate(-2.95 152.52) rotate(-72.59)" fill="#423e50" stroke="#423e50" stroke-miterlimit="10"/><line x1="135.29" y1="30.27" x2="114.93" y2="74.4" fill="none" stroke="#423e50" stroke-miterlimit="10" stroke-width="5"/><path d="M139.6,40a16.47,16.47,0,0,1,7.94,4.11c2.38,2.44,3.75,6.05,6.88,7.4-.15.43-.68.55-1.13.58a13.27,13.27,0,0,1-7.35-1.6c-2.37-1.31-4.31-3.32-6.71-4.58" transform="translate(-4.39 -9.51)" fill="#423e50"/><path d="M138.94,42.4a14.4,14.4,0,0,1,8.59,5.67c1.61,2.21,3.14,4.32,5.63,5.59l-.51-3.93c-.32.31-2.95-.43-3.41-.56a11.88,11.88,0,0,1-2.91-1.36c-2-1.26-3.76-2.87-5.84-4.05-2.8-1.6-5.32,2.72-2.52,4.32,3.26,1.86,5.86,4.56,9.49,5.77,2.67.89,6.53,1.56,8.73-.57a2.52,2.52,0,0,0-.51-3.93c-2.93-1.49-4.16-4.74-6.38-7a19.4,19.4,0,0,0-9-4.76c-3.11-.84-4.44,4-1.33,4.82Z" transform="translate(-4.39 -9.51)" fill="#423e50"/><g opacity="0.51"><path d="M190.63,82.73l-1-5-8.9-2-3,4.15-5-1.11,13.85-19.21,4.59,1,4.49,23.25ZM187.5,66.41l-4,5.58,5.31,1.17Z" transform="translate(-4.39 -9.51)" fill="#433e50"/><path d="M205.17,63.67l4.74,1-4.68,21.23-4.74-1Z" transform="translate(-4.39 -9.51)" fill="#433e50"/></g><g opacity="0.51"><path d="M25.44,24.15,25.08,37.4l-2.63,1.21L12.17,30.28,17.9,42.7l-4.41,2L4.39,25l6-2.75,10.09,8.5.11-13.2,5.93-2.74,9.11,19.74-4.41,2Z" transform="translate(-4.39 -9.51)" fill="#433e50"/><path d="M42.64,31.29,33.53,11.55l4.41-2,7.3,15.81,8.41-3.88,1.81,3.92Z" transform="translate(-4.39 -9.51)" fill="#433e50"/></g><g opacity="0.51"><path d="M36.16,142.87l3.52-1.62,2.57,5.56A9.06,9.06,0,0,1,37,152.39a8.78,8.78,0,0,1-6.85.39,9.13,9.13,0,0,1-5.31-11.62,8.76,8.76,0,0,1,4.69-5,9.39,9.39,0,0,1,6.89-.49l-.61,3.46a7.64,7.64,0,0,0-2.52-.37,5.75,5.75,0,0,0-2.08.54,5.06,5.06,0,0,0-2.74,2.91,6,6,0,0,0,3.23,7.16,4.66,4.66,0,0,0,3.74-.11,6.61,6.61,0,0,0,2.71-2.09Z" transform="translate(-4.39 -9.51)" fill="#433e50"/><path d="M54,140.57a5.68,5.68,0,0,0,3.27-4l3.31,1.28a9.32,9.32,0,0,1-11.92,6.37,9.13,9.13,0,0,1-5.31-11.62,8.86,8.86,0,0,1,4.77-5,9.12,9.12,0,0,1,7.81,0l-1,3.47a5.62,5.62,0,0,0-5.08-.16A5.29,5.29,0,0,0,47,133.71a4.94,4.94,0,0,0,.2,4.12,5.22,5.22,0,0,0,2.94,2.9A4.81,4.81,0,0,0,54,140.57Z" transform="translate(-4.39 -9.51)" fill="#433e50"/><path d="M70.61,119.35a5.89,5.89,0,0,1,3.64,3.54,5.62,5.62,0,0,1,.27,5q-1.07,2.13-4.55,3.73l-2.09,1,2,4.37-3.5,1.61-7.23-15.67,5.54-2.56Q68.32,118.71,70.61,119.35Zm.28,7.35a3.32,3.32,0,0,0-.32-2.35,2.41,2.41,0,0,0-1.71-1.55,5,5,0,0,0-2.81.6l-2,.92,2.43,5.27,2.35-1.09Q70.59,127.7,70.89,126.7Z" transform="translate(-4.39 -9.51)" fill="#433e50"/></g></g></g></svg>